<svg xmlns="http://www.w3.org/2000/svg" xmlns:xlink="http://www.w3.org/1999/xlink" width="102.5" zoomAndPan="magnify" viewBox="0 0 1230 693.000001" height="57.75" preserveAspectRatio="xMidYMid meet" version="1.0"><defs><g/><clipPath id="06b7e6a965"><path d="M 0.886719 116 L 568.328125 116 L 568.328125 651 L 0.886719 651 Z M 0.886719 116 " clip-rule="nonzero"/></clipPath></defs><g clip-path="url(#06b7e6a965)"><path fill="#8424BD" d="M 550.140625 116.144531 L 401.777344 116.144531 C 410.476562 133.519531 416.273438 152.984375 418.363281 173.722656 C 426.195312 177.285156 431.707031 185.140625 431.707031 194.328125 C 431.707031 203.824219 425.867188 211.945312 417.589844 215.332031 C 414.929688 216.40625 412.050781 217.019531 409.007812 217.019531 C 405.265625 217.019531 401.777344 216.105469 398.660156 214.515625 C 391.324219 210.753906 386.304688 203.136719 386.304688 194.328125 C 386.304688 186.371094 390.421875 179.421875 396.644531 175.367188 C 394.367188 153.523438 387.433594 133.324219 377.023438 116.144531 L 192.394531 116.144531 C 181.96875 133.34375 175.039062 153.570312 172.773438 175.441406 C 178.902344 179.511719 182.972656 186.425781 182.972656 194.328125 C 182.972656 203.136719 177.949219 210.753906 170.613281 214.515625 C 167.503906 216.105469 164 217.019531 160.273438 217.019531 C 157.238281 217.019531 154.339844 216.40625 151.699219 215.332031 C 143.421875 211.945312 137.582031 203.824219 137.582031 194.328125 C 137.582031 185.09375 143.128906 177.183594 151.054688 173.648438 C 153.136719 152.953125 158.914062 133.5 167.609375 116.136719 L 19.050781 116.136719 L 0.878906 614.34375 C 0.878906 634.414062 17.152344 650.691406 37.238281 650.691406 L 531.960938 650.691406 C 552.050781 650.691406 568.339844 634.414062 568.339844 614.34375 Z M 550.140625 116.144531 " fill-opacity="1" fill-rule="nonzero"/></g><path fill="#8424BD" d="M 153.027344 190.628906 L 153.066406 191.03125 C 153.292969 195.289062 156.796875 198.628906 161.035156 198.628906 C 165.289062 198.628906 168.785156 195.296875 169.015625 191.03125 L 169.0625 190.046875 C 169.558594 116.859375 221.242188 57.492188 284.707031 57.492188 C 348.285156 57.492188 400.054688 117.082031 400.355469 190.464844 L 400.410156 191.03125 C 400.621094 195.289062 404.117188 198.621094 408.367188 198.621094 C 412.621094 198.621094 416.117188 195.289062 416.355469 191.023438 L 416.390625 190.363281 C 415.941406 108.152344 356.9375 41.453125 284.707031 41.453125 C 212.40625 41.453125 153.339844 108.308594 153.035156 190.472656 Z M 153.027344 190.628906 " fill-opacity="1" fill-rule="nonzero"/><g fill="#000000" fill-opacity="1"><g transform="translate(630.825585, 292.335438)"><g><path d="M 161.949219 -71.664062 C 160.898438 -112.066406 128.929688 -143.332031 88.878906 -143.332031 C 48.480469 -143.332031 15.808594 -110.660156 15.808594 -70.261719 C 15.808594 -29.859375 48.480469 2.808594 88.878906 2.808594 C 122.253906 2.808594 150.007812 -19.320312 159.140625 -49.535156 L 135.953125 -49.535156 C 128.226562 -31.265625 109.957031 -18.96875 88.878906 -18.96875 C 61.125 -18.96875 38.996094 -40.046875 37.589844 -67.097656 L 161.601562 -67.097656 Z M 88.878906 -121.550781 C 111.363281 -121.550781 130.332031 -107.148438 137.007812 -86.773438 L 40.398438 -86.773438 C 47.425781 -107.148438 66.394531 -121.550781 88.878906 -121.550781 Z M 88.878906 -121.550781 "/></g></g></g><g fill="#000000" fill-opacity="1"><g transform="translate(630.825585, 582.197156)"><g><path d="M 78.691406 2.808594 C 114.523438 2.808594 143.683594 -18.617188 143.683594 -55.507812 C 143.683594 -127.171875 41.101562 -109.605469 41.101562 -159.84375 C 41.101562 -180.921875 58.316406 -191.109375 77.988281 -191.109375 C 94.148438 -191.109375 107.5 -184.433594 115.929688 -172.488281 L 133.496094 -187.246094 C 121.902344 -202 101.527344 -213.59375 77.285156 -213.59375 C 44.96875 -213.59375 18.617188 -192.515625 18.617188 -158.085938 C 18.617188 -90.285156 121.199219 -107.148438 121.199219 -54.804688 C 121.199219 -32.320312 102.582031 -19.671875 79.042969 -19.671875 C 55.15625 -19.671875 37.941406 -32.671875 30.5625 -51.992188 L 10.1875 -40.046875 C 21.078125 -14.050781 47.425781 2.808594 78.691406 2.808594 Z M 78.691406 2.808594 "/></g></g></g><g fill="#000000" fill-opacity="1"><g transform="translate(759.958231, 582.197156)"><g><path d="M 78.691406 -143.332031 C 67.097656 -143.332031 56.207031 -139.46875 47.425781 -133.144531 L 47.425781 -258.558594 L 25.644531 -258.558594 L 25.644531 0 L 47.425781 0 L 47.425781 -89.933594 C 47.425781 -107.851562 61.476562 -121.550781 78.691406 -121.550781 C 95.90625 -121.550781 110.308594 -107.851562 110.308594 -89.933594 L 110.308594 0 L 131.738281 0 L 131.738281 -89.933594 C 131.738281 -119.792969 108.203125 -143.332031 78.691406 -143.332031 Z M 78.691406 -143.332031 "/></g></g></g><g fill="#000000" fill-opacity="1"><g transform="translate(890.847346, 582.197156)"><g><path d="M 88.878906 2.808594 C 129.28125 2.808594 161.949219 -29.859375 161.949219 -70.261719 C 161.949219 -110.660156 129.28125 -143.332031 88.878906 -143.332031 C 48.480469 -143.332031 15.808594 -110.660156 15.808594 -70.261719 C 15.808594 -29.859375 48.480469 2.808594 88.878906 2.808594 Z M 88.878906 -18.96875 C 60.425781 -18.96875 37.589844 -41.804688 37.589844 -70.261719 C 37.589844 -98.714844 60.425781 -121.550781 88.878906 -121.550781 C 116.984375 -121.550781 140.171875 -98.714844 140.171875 -70.261719 C 140.171875 -41.804688 116.984375 -18.96875 88.878906 -18.96875 Z M 88.878906 -18.96875 "/></g></g></g><g fill="#000000" fill-opacity="1"><g transform="translate(1043.867872, 582.197156)"><g><path d="M 98.714844 -143.332031 C 78.691406 -143.332031 60.777344 -135.253906 47.425781 -122.253906 L 47.425781 -140.523438 L 25.644531 -140.523438 L 25.644531 84.3125 L 47.425781 84.3125 L 47.425781 -18.269531 C 60.777344 -5.269531 78.691406 2.808594 98.714844 2.808594 C 139.117188 2.808594 171.789062 -29.859375 171.789062 -70.261719 C 171.789062 -110.660156 139.117188 -143.332031 98.714844 -143.332031 Z M 98.714844 -18.96875 C 70.261719 -18.96875 47.425781 -41.804688 47.425781 -70.261719 C 47.425781 -98.714844 70.261719 -121.550781 98.714844 -121.550781 C 127.171875 -121.550781 150.007812 -98.714844 150.007812 -70.261719 C 150.007812 -41.804688 127.171875 -18.96875 98.714844 -18.96875 Z M 98.714844 -18.96875 "/></g></g></g></svg>